<svg xmlns="http://www.w3.org/2000/svg" xmlns:xlink="http://www.w3.org/1999/xlink" viewBox="0 0 792.65 126.46">
	<defs>
		<style>
			.cls-1{fill:url(#linear-gradient);}.cls-2{fill:#fff;}.cls-3{fill:#bbbdbf;}
		</style>
		<linearGradient id="linear-gradient" x1="289.52" y1="10.77" x2="25.52" y2="177.88" gradientUnits="userSpaceOnUse">
			<stop offset="0" stop-color="#7AE36A" />
			<stop offset="1" stop-color="#7AE36A" />
		</linearGradient>
	</defs>
	<g id="Layer_2" data-name="Layer 2">
		<g id="Layer_1-2" data-name="Layer 1">
			<polygon class="cls-1" points="213.52 0 0 126.45 213.52 126.45 213.52 0" />
			<polygon class="cls-2" points="266.81 0 266.81 22.04 304.02 22.04 304.02 126.45 330.04 126.45 330.04 22.04 330.04 0 304.02 0 266.81 0" />
			<path class="cls-2" d="M406.56,34.3c-32.81-.22-55.88,34-42.79,64.15,12.41,29.4,50.12,36.64,72.81,17l-12.89-15.17a28,28,0,0,1-9.75,4.12,25,25,0,1,1-10.89-48.6,21.21,21.21,0,0,1,8.38.27l.56.14c7.59,2,13.91,8.19,16.54,16.5H394.59L406,90.94h45.38l.17-.36C458.13,62.24,435.66,34.1,406.56,34.3Z" />
			<path class="cls-2" d="M516,104.41A25,25,0,0,1,483.48,80.7h0v-.25h0A25,25,0,0,1,516,56.74a28,28,0,0,1,9.75,4.12L538.67,45.7c-22.69-19.64-60.4-12.4-72.81,17a44.57,44.57,0,0,0-3.72,17.74h0s0,.09,0,.13,0,.08,0,.12h0a44.65,44.65,0,0,0,3.72,17.75c12.41,29.4,50.12,36.64,72.81,17l-12.89-15.17A28,28,0,0,1,516,104.41Z" />
			<path class="cls-2" d="M629.55,85.11h23.84c0-18.06-7.92-31.73-14.46-38.21-7.32-7.25-17.35-11.41-30.35-11.41A73,73,0,0,0,584,40.24l9.94,20.84s14.24-5,23.21,0C626.31,66.24,629.55,75.4,629.55,85.11Z" />
			<polygon class="cls-2" points="555.03 125.07 578.79 125.07 578.97 0 555.21 0 555.03 125.07" />
			<path class="cls-2" d="M739.15,35.73v12c-10.36-14.39-30.46-16.62-46.09-9.8C670,47.63,658.31,75.35,668.49,98.45c4.84,11.13,11,18.67,22.2,23.4,12.11,5.32,28.83,5.41,42.32-.45l-6.25-19.75C707,106.74,696.1,102.1,691.09,90a24.53,24.53,0,0,1,5.45-27.16c9.51-9.53,25.62-9.69,35.2-.1,4.72,4.62,7.41,13.82,7.41,25.8v36.54h23.41V35.73Z" />
			<polygon class="cls-2" points="367.25 0 330.04 22.04 367.25 22.04 367.25 0" />
			<rect class="cls-2" x="629.55" y="85.11" width="23.84" height="39.96" />
			<path class="cls-3" d="M779.05,44.75V36.69h-3.21v-.61H783v.61h-3.25v8.06Z" />
			<path class="cls-3" d="M784.38,44.75V36.08h1l2.69,6.57.16.41q.07.21.15.39c0,.13.08.23.1.31h.07l.14-.39c.06-.14.11-.28.16-.41a3.07,3.07,0,0,0,.11-.31l2.7-6.57h1v8.67H792V38.86c0-.12,0-.28,0-.49s0-.44,0-.67,0-.45,0-.63h-.09c0,.16-.09.3-.13.44s-.1.26-.14.38l-.15.35-2.74,6.51h-.47l-2.74-6.51-.15-.35c0-.12-.09-.25-.13-.38s-.09-.28-.14-.44H785c0,.15,0,.33,0,.55v.66c0,.22,0,.41,0,.58v5.89Z" />
		</g>
	</g>
</svg>
